<svg width="19" height="18" viewBox="0 0 19 18" fill="none" xmlns="http://www.w3.org/2000/svg">
<g id="chevron-up">
<path id="Vector" fill-rule="evenodd" clip-rule="evenodd" d="M13.987 6.56311C13.8182 6.39439 13.5893 6.2996 13.3507 6.2996C13.112 6.2996 12.8831 6.39439 12.7144 6.56311L9.75066 9.52681L6.78696 6.56311C6.61722 6.39917 6.38988 6.30845 6.1539 6.3105C5.91792 6.31255 5.69219 6.40721 5.52532 6.57407C5.35846 6.74094 5.2638 6.96667 5.26175 7.20265C5.2597 7.43863 5.35042 7.66597 5.51436 7.83571L9.11436 11.4357C9.28313 11.6044 9.51201 11.6992 9.75066 11.6992C9.98931 11.6992 10.2182 11.6044 10.387 11.4357L13.987 7.83571C14.1557 7.66694 14.2505 7.43806 14.2505 7.19941C14.2505 6.96076 14.1557 6.73189 13.987 6.56311Z" fill="#333333"/>
</g>
</svg>
