<svg width="24" height="18" viewBox="0 0 24 18" fill="none" xmlns="http://www.w3.org/2000/svg">
<g id="Lozenge">
<path id="Vector" d="M23.7609 4.20078C23.7609 4.20078 23.5266 2.54609 22.8047 1.81953C21.8906 0.863281 20.8688 0.858594 20.4 0.802344C17.0438 0.558594 12.0047 0.558594 12.0047 0.558594H11.9953C11.9953 0.558594 6.95625 0.558594 3.6 0.802344C3.13125 0.858594 2.10938 0.863281 1.19531 1.81953C0.473438 2.54609 0.24375 4.20078 0.24375 4.20078C0.24375 4.20078 0 6.14609 0 8.08672V9.90547C0 11.8461 0.239062 13.7914 0.239062 13.7914C0.239062 13.7914 0.473437 15.4461 1.19062 16.1727C2.10469 17.1289 3.30469 17.0961 3.83906 17.1992C5.76094 17.382 12 17.4383 12 17.4383C12 17.4383 17.0438 17.4289 20.4 17.1898C20.8688 17.1336 21.8906 17.1289 22.8047 16.1727C23.5266 15.4461 23.7609 13.7914 23.7609 13.7914C23.7609 13.7914 24 11.8508 24 9.90547V8.08672C24 6.14609 23.7609 4.20078 23.7609 4.20078ZM9.52031 12.1133V5.36797L16.0031 8.75234L9.52031 12.1133Z" fill="white"/>
</g>
</svg>
